<mxfile host="Electron" modified="2024-02-12T07:21:13.027Z" agent="Mozilla/5.0 (Macintosh; Intel Mac OS X 10_15_7) AppleWebKit/537.36 (KHTML, like Gecko) draw.io/21.4.0 Chrome/112.0.5615.204 Electron/24.5.1 Safari/537.36" etag="8VOaVEUn8pPle-SYMMnj" version="21.4.0" type="device" pages="9">
  <diagram name="Page-1" id="MiumfRCjC7QInYSiCViW">
    <mxGraphModel dx="1242" dy="828" grid="1" gridSize="10" guides="1" tooltips="1" connect="1" arrows="1" fold="1" page="1" pageScale="1" pageWidth="827" pageHeight="1169" math="0" shadow="0">
      <root>
        <mxCell id="0" />
        <mxCell id="1" parent="0" />
        <mxCell id="sQJ2_5xYqEPOYXLcnjm_-11" style="edgeStyle=orthogonalEdgeStyle;rounded=0;orthogonalLoop=1;jettySize=auto;html=1;" edge="1" parent="1" source="sQJ2_5xYqEPOYXLcnjm_-1" target="sQJ2_5xYqEPOYXLcnjm_-6">
          <mxGeometry relative="1" as="geometry" />
        </mxCell>
        <mxCell id="sQJ2_5xYqEPOYXLcnjm_-1" value="0x10000" style="rounded=0;whiteSpace=wrap;html=1;fontStyle=1;fontSize=15;fillColor=#dae8fc;strokeColor=#6c8ebf;" vertex="1" parent="1">
          <mxGeometry x="60" y="770" width="110" height="50" as="geometry" />
        </mxCell>
        <mxCell id="sQJ2_5xYqEPOYXLcnjm_-2" value="&lt;div style=&quot;color: rgb(0, 0, 0); background-color: rgb(255, 255, 255); font-family: Menlo, Monaco, &amp;quot;Courier New&amp;quot;, monospace; font-weight: normal; font-size: 29px; line-height: 44px;&quot;&gt;&lt;div&gt;&lt;span style=&quot;color: #0000ff;&quot;&gt;class&lt;/span&gt;&lt;span style=&quot;color: #000000;&quot;&gt; &lt;/span&gt;&lt;span style=&quot;color: #267f99;&quot;&gt;Person&lt;/span&gt;&lt;span style=&quot;color: #000000;&quot;&gt; {&lt;/span&gt;&lt;/div&gt;&lt;div&gt;&lt;span style=&quot;color: #000000;&quot;&gt;&lt;/span&gt;&lt;span style=&quot;color: #008000;&quot;&gt;&amp;nbsp; // properties&lt;/span&gt;&lt;/div&gt;&lt;div&gt;&lt;span style=&quot;color: #000000;&quot;&gt;&lt;/span&gt;&lt;span style=&quot;color: #001080;&quot;&gt;&amp;nbsp; name&lt;/span&gt;&lt;span style=&quot;color: #000000;&quot;&gt;: &lt;/span&gt;&lt;span style=&quot;color: #267f99;&quot;&gt;String&lt;/span&gt;&lt;/div&gt;&lt;div&gt;&lt;span style=&quot;color: #000000;&quot;&gt;&lt;/span&gt;&lt;span style=&quot;color: #001080;&quot;&gt;&amp;nbsp; address&lt;/span&gt;&lt;span style=&quot;color: #000000;&quot;&gt;: &lt;/span&gt;&lt;span style=&quot;color: #267f99;&quot;&gt;String&lt;/span&gt;&lt;/div&gt;&lt;div&gt;&lt;span style=&quot;color: #000000;&quot;&gt;&lt;/span&gt;&lt;span style=&quot;color: #001080;&quot;&gt;&amp;nbsp; age&lt;/span&gt;&lt;span style=&quot;color: #000000;&quot;&gt;: &lt;/span&gt;&lt;span style=&quot;color: #267f99;&quot;&gt;Number&lt;/span&gt;&lt;/div&gt;&lt;div&gt;&lt;span style=&quot;color: #000000;&quot;&gt;&lt;/span&gt;&lt;span style=&quot;color: #001080;&quot;&gt;&amp;nbsp; phone&lt;/span&gt;&lt;span style=&quot;color: #000000;&quot;&gt;: &lt;/span&gt;&lt;span style=&quot;color: #267f99;&quot;&gt;String&lt;/span&gt;&lt;/div&gt;&lt;div&gt;&lt;span style=&quot;color: #000000;&quot;&gt;}&lt;/span&gt;&lt;/div&gt;&lt;/div&gt;" style="text;whiteSpace=wrap;html=1;" vertex="1" parent="1">
          <mxGeometry x="60" y="30" width="300" height="330" as="geometry" />
        </mxCell>
        <mxCell id="sQJ2_5xYqEPOYXLcnjm_-6" value="" style="rounded=0;whiteSpace=wrap;html=1;fontStyle=1;fontSize=15;fillColor=#fff2cc;strokeColor=#d6b656;" vertex="1" parent="1">
          <mxGeometry x="290" y="695" width="320" height="200" as="geometry" />
        </mxCell>
        <mxCell id="sQJ2_5xYqEPOYXLcnjm_-7" value="0x10000" style="text;html=1;strokeColor=none;fillColor=none;align=left;verticalAlign=middle;whiteSpace=wrap;rounded=0;fontStyle=1;fontSize=19;" vertex="1" parent="1">
          <mxGeometry x="290" y="660" width="100" height="30" as="geometry" />
        </mxCell>
        <mxCell id="sQJ2_5xYqEPOYXLcnjm_-8" value="object of Person Class" style="text;html=1;strokeColor=none;fillColor=none;align=left;verticalAlign=middle;whiteSpace=wrap;rounded=0;fontStyle=1;fontSize=19;" vertex="1" parent="1">
          <mxGeometry x="290" y="900" width="320" height="30" as="geometry" />
        </mxCell>
        <mxCell id="sQJ2_5xYqEPOYXLcnjm_-9" value="0x11000" style="text;html=1;strokeColor=none;fillColor=none;align=left;verticalAlign=middle;whiteSpace=wrap;rounded=0;fontStyle=1;fontSize=19;" vertex="1" parent="1">
          <mxGeometry x="60" y="740" width="100" height="30" as="geometry" />
        </mxCell>
        <mxCell id="sQJ2_5xYqEPOYXLcnjm_-10" value="person1&lt;br&gt;(reference)" style="text;html=1;strokeColor=none;fillColor=none;align=left;verticalAlign=middle;whiteSpace=wrap;rounded=0;fontStyle=1;fontSize=19;" vertex="1" parent="1">
          <mxGeometry x="60" y="830" width="100" height="50" as="geometry" />
        </mxCell>
        <mxCell id="sQJ2_5xYqEPOYXLcnjm_-12" value="&lt;div style=&quot;color: rgb(0, 0, 0); background-color: rgb(255, 255, 255); font-family: Menlo, Monaco, &amp;quot;Courier New&amp;quot;, monospace; font-weight: normal; font-size: 29px; line-height: 44px;&quot;&gt;&lt;div&gt;&lt;span style=&quot;color: #0000ff;&quot;&gt;const&lt;/span&gt;&lt;span style=&quot;color: #000000;&quot;&gt; &lt;/span&gt;&lt;span style=&quot;color: #0070c1;&quot;&gt;person1&lt;/span&gt;&lt;span style=&quot;color: #000000;&quot;&gt; = &lt;/span&gt;&lt;span style=&quot;color: #0000ff;&quot;&gt;new&lt;/span&gt;&lt;span style=&quot;color: #000000;&quot;&gt; &lt;/span&gt;&lt;span style=&quot;color: #267f99;&quot;&gt;Person&lt;/span&gt;&lt;span style=&quot;color: #000000;&quot;&gt;()&lt;/span&gt;&lt;/div&gt;&lt;div&gt;&lt;span style=&quot;color: #0070c1;&quot;&gt;person1&lt;/span&gt;&lt;span style=&quot;color: #000000;&quot;&gt;.&lt;/span&gt;&lt;span style=&quot;color: #001080;&quot;&gt;name&lt;/span&gt;&lt;span style=&quot;color: #000000;&quot;&gt; = &lt;/span&gt;&lt;span style=&quot;color: #a31515;&quot;&gt;&#39;person1&#39;&lt;/span&gt;&lt;/div&gt;&lt;div&gt;&lt;span style=&quot;color: #0070c1;&quot;&gt;person1&lt;/span&gt;&lt;span style=&quot;color: #000000;&quot;&gt;.&lt;/span&gt;&lt;span style=&quot;color: #001080;&quot;&gt;age&lt;/span&gt;&lt;span style=&quot;color: #000000;&quot;&gt; = &lt;/span&gt;&lt;span style=&quot;color: #098658;&quot;&gt;30&lt;/span&gt;&lt;/div&gt;&lt;div&gt;&lt;span style=&quot;color: #0070c1;&quot;&gt;person1&lt;/span&gt;&lt;span style=&quot;color: #000000;&quot;&gt;.&lt;/span&gt;&lt;span style=&quot;color: #001080;&quot;&gt;address&lt;/span&gt;&lt;span style=&quot;color: #000000;&quot;&gt; = &lt;/span&gt;&lt;span style=&quot;color: #a31515;&quot;&gt;&#39;pune&#39;&lt;/span&gt;&lt;/div&gt;&lt;div&gt;&lt;span style=&quot;color: #0070c1;&quot;&gt;person1&lt;/span&gt;&lt;span style=&quot;color: #000000;&quot;&gt;.&lt;/span&gt;&lt;span style=&quot;color: #001080;&quot;&gt;phone&lt;/span&gt;&lt;span style=&quot;color: #000000;&quot;&gt; = &lt;/span&gt;&lt;span style=&quot;color: #a31515;&quot;&gt;&#39;+913423234&#39;&lt;/span&gt;&lt;/div&gt;&lt;/div&gt;" style="text;whiteSpace=wrap;html=1;" vertex="1" parent="1">
          <mxGeometry x="60" y="370" width="520" height="240" as="geometry" />
        </mxCell>
        <mxCell id="sQJ2_5xYqEPOYXLcnjm_-13" value="name: &quot;person1&quot;&lt;br style=&quot;font-size: 23px;&quot;&gt;age: 30&lt;br style=&quot;font-size: 23px;&quot;&gt;address: &quot;pune&quot;&lt;br style=&quot;font-size: 23px;&quot;&gt;phone: &quot;+913423234&quot;" style="text;html=1;strokeColor=none;fillColor=none;align=left;verticalAlign=top;whiteSpace=wrap;rounded=0;fontStyle=1;fontSize=23;" vertex="1" parent="1">
          <mxGeometry x="324" y="730" width="256" height="130" as="geometry" />
        </mxCell>
      </root>
    </mxGraphModel>
  </diagram>
  <diagram id="utFKw0sW3xrD45tVbDdy" name="Page-2">
    <mxGraphModel dx="857" dy="571" grid="1" gridSize="10" guides="1" tooltips="1" connect="1" arrows="1" fold="1" page="1" pageScale="1" pageWidth="827" pageHeight="1169" math="0" shadow="0">
      <root>
        <mxCell id="0" />
        <mxCell id="1" parent="0" />
        <mxCell id="ea0w96v7ULE6XMMP7u9U-4" style="edgeStyle=orthogonalEdgeStyle;rounded=0;orthogonalLoop=1;jettySize=auto;html=1;" edge="1" parent="1" source="ea0w96v7ULE6XMMP7u9U-1" target="ea0w96v7ULE6XMMP7u9U-2">
          <mxGeometry relative="1" as="geometry" />
        </mxCell>
        <mxCell id="ea0w96v7ULE6XMMP7u9U-5" style="edgeStyle=orthogonalEdgeStyle;rounded=0;orthogonalLoop=1;jettySize=auto;html=1;entryX=0.533;entryY=0.02;entryDx=0;entryDy=0;entryPerimeter=0;" edge="1" parent="1" source="ea0w96v7ULE6XMMP7u9U-1" target="ea0w96v7ULE6XMMP7u9U-3">
          <mxGeometry relative="1" as="geometry" />
        </mxCell>
        <mxCell id="ea0w96v7ULE6XMMP7u9U-1" value="function" style="rounded=0;whiteSpace=wrap;html=1;fontSize=16;fontStyle=1" vertex="1" parent="1">
          <mxGeometry x="320" y="40" width="120" height="40" as="geometry" />
        </mxCell>
        <mxCell id="ea0w96v7ULE6XMMP7u9U-2" value="function&lt;br&gt;global function&lt;br&gt;non-oop function" style="rounded=0;whiteSpace=wrap;html=1;fontSize=16;fontStyle=1" vertex="1" parent="1">
          <mxGeometry x="120" y="120" width="200" height="70" as="geometry" />
        </mxCell>
        <mxCell id="ea0w96v7ULE6XMMP7u9U-3" value="method&lt;br&gt;oop function" style="rounded=0;whiteSpace=wrap;html=1;fontSize=16;fontStyle=1" vertex="1" parent="1">
          <mxGeometry x="440" y="120" width="180" height="70" as="geometry" />
        </mxCell>
        <mxCell id="ea0w96v7ULE6XMMP7u9U-6" value="declared outside of any class" style="text;html=1;strokeColor=none;fillColor=none;align=center;verticalAlign=middle;whiteSpace=wrap;rounded=0;fontSize=14;" vertex="1" parent="1">
          <mxGeometry x="120" y="190" width="200" height="40" as="geometry" />
        </mxCell>
        <mxCell id="ea0w96v7ULE6XMMP7u9U-13" style="edgeStyle=orthogonalEdgeStyle;rounded=0;orthogonalLoop=1;jettySize=auto;html=1;entryX=0;entryY=0.5;entryDx=0;entryDy=0;" edge="1" parent="1" source="ea0w96v7ULE6XMMP7u9U-7" target="ea0w96v7ULE6XMMP7u9U-8">
          <mxGeometry relative="1" as="geometry" />
        </mxCell>
        <mxCell id="ea0w96v7ULE6XMMP7u9U-14" style="edgeStyle=orthogonalEdgeStyle;rounded=0;orthogonalLoop=1;jettySize=auto;html=1;entryX=0;entryY=0.5;entryDx=0;entryDy=0;" edge="1" parent="1" source="ea0w96v7ULE6XMMP7u9U-7" target="ea0w96v7ULE6XMMP7u9U-9">
          <mxGeometry relative="1" as="geometry" />
        </mxCell>
        <mxCell id="ea0w96v7ULE6XMMP7u9U-15" style="edgeStyle=orthogonalEdgeStyle;rounded=0;orthogonalLoop=1;jettySize=auto;html=1;entryX=0;entryY=0.5;entryDx=0;entryDy=0;" edge="1" parent="1" source="ea0w96v7ULE6XMMP7u9U-7" target="ea0w96v7ULE6XMMP7u9U-10">
          <mxGeometry relative="1" as="geometry" />
        </mxCell>
        <mxCell id="ea0w96v7ULE6XMMP7u9U-16" style="edgeStyle=orthogonalEdgeStyle;rounded=0;orthogonalLoop=1;jettySize=auto;html=1;entryX=0;entryY=0.5;entryDx=0;entryDy=0;" edge="1" parent="1" source="ea0w96v7ULE6XMMP7u9U-7" target="ea0w96v7ULE6XMMP7u9U-11">
          <mxGeometry relative="1" as="geometry" />
        </mxCell>
        <mxCell id="ea0w96v7ULE6XMMP7u9U-17" style="edgeStyle=orthogonalEdgeStyle;rounded=0;orthogonalLoop=1;jettySize=auto;html=1;entryX=0;entryY=0.5;entryDx=0;entryDy=0;" edge="1" parent="1" source="ea0w96v7ULE6XMMP7u9U-7" target="ea0w96v7ULE6XMMP7u9U-12">
          <mxGeometry relative="1" as="geometry" />
        </mxCell>
        <mxCell id="ea0w96v7ULE6XMMP7u9U-7" value="declared inside of any class" style="text;html=1;strokeColor=none;fillColor=none;align=center;verticalAlign=middle;whiteSpace=wrap;rounded=0;fontSize=14;" vertex="1" parent="1">
          <mxGeometry x="440" y="190" width="180" height="40" as="geometry" />
        </mxCell>
        <mxCell id="ea0w96v7ULE6XMMP7u9U-8" value="constructor" style="rounded=0;whiteSpace=wrap;html=1;fontStyle=1" vertex="1" parent="1">
          <mxGeometry x="560" y="240" width="140" height="40" as="geometry" />
        </mxCell>
        <mxCell id="ea0w96v7ULE6XMMP7u9U-9" value="destructor" style="rounded=0;whiteSpace=wrap;html=1;fontStyle=1" vertex="1" parent="1">
          <mxGeometry x="560" y="290" width="140" height="40" as="geometry" />
        </mxCell>
        <mxCell id="ea0w96v7ULE6XMMP7u9U-10" value="setter" style="rounded=0;whiteSpace=wrap;html=1;fontStyle=1" vertex="1" parent="1">
          <mxGeometry x="560" y="340" width="140" height="40" as="geometry" />
        </mxCell>
        <mxCell id="ea0w96v7ULE6XMMP7u9U-11" value="getter" style="rounded=0;whiteSpace=wrap;html=1;fontStyle=1" vertex="1" parent="1">
          <mxGeometry x="560" y="390" width="140" height="40" as="geometry" />
        </mxCell>
        <mxCell id="ea0w96v7ULE6XMMP7u9U-12" value="facilitator" style="rounded=0;whiteSpace=wrap;html=1;fontStyle=1" vertex="1" parent="1">
          <mxGeometry x="560" y="440" width="140" height="40" as="geometry" />
        </mxCell>
      </root>
    </mxGraphModel>
  </diagram>
  <diagram id="UQWpoRi6fKFMl-86JENr" name="Page-3">
    <mxGraphModel dx="857" dy="571" grid="1" gridSize="10" guides="1" tooltips="1" connect="1" arrows="1" fold="1" page="1" pageScale="1" pageWidth="827" pageHeight="1169" math="0" shadow="0">
      <root>
        <mxCell id="0" />
        <mxCell id="1" parent="0" />
        <mxCell id="2AR0JGc42Wk-_SkHoWOv-4" style="edgeStyle=orthogonalEdgeStyle;rounded=0;orthogonalLoop=1;jettySize=auto;html=1;" edge="1" parent="1" source="2AR0JGc42Wk-_SkHoWOv-1" target="2AR0JGc42Wk-_SkHoWOv-2">
          <mxGeometry relative="1" as="geometry" />
        </mxCell>
        <mxCell id="2AR0JGc42Wk-_SkHoWOv-5" style="edgeStyle=orthogonalEdgeStyle;rounded=0;orthogonalLoop=1;jettySize=auto;html=1;" edge="1" parent="1" source="2AR0JGc42Wk-_SkHoWOv-1" target="2AR0JGc42Wk-_SkHoWOv-3">
          <mxGeometry relative="1" as="geometry" />
        </mxCell>
        <mxCell id="2AR0JGc42Wk-_SkHoWOv-1" value="Code Reuse" style="rounded=0;whiteSpace=wrap;html=1;fontStyle=1;fontSize=17;fillColor=#e1d5e7;strokeColor=#9673a6;" vertex="1" parent="1">
          <mxGeometry x="294" y="90" width="156" height="50" as="geometry" />
        </mxCell>
        <mxCell id="2AR0JGc42Wk-_SkHoWOv-2" value="Procedure" style="rounded=0;whiteSpace=wrap;html=1;fontStyle=1;fontSize=17;fillColor=#fff2cc;strokeColor=#d6b656;" vertex="1" parent="1">
          <mxGeometry x="138" y="190" width="156" height="50" as="geometry" />
        </mxCell>
        <mxCell id="2AR0JGc42Wk-_SkHoWOv-15" style="edgeStyle=orthogonalEdgeStyle;rounded=0;orthogonalLoop=1;jettySize=auto;html=1;" edge="1" parent="1" source="2AR0JGc42Wk-_SkHoWOv-3" target="2AR0JGc42Wk-_SkHoWOv-7">
          <mxGeometry relative="1" as="geometry">
            <Array as="points">
              <mxPoint x="528" y="270" />
              <mxPoint x="358" y="270" />
            </Array>
          </mxGeometry>
        </mxCell>
        <mxCell id="2AR0JGc42Wk-_SkHoWOv-16" style="edgeStyle=orthogonalEdgeStyle;rounded=0;orthogonalLoop=1;jettySize=auto;html=1;" edge="1" parent="1" source="2AR0JGc42Wk-_SkHoWOv-3" target="2AR0JGc42Wk-_SkHoWOv-8">
          <mxGeometry relative="1" as="geometry">
            <Array as="points">
              <mxPoint x="528" y="270" />
              <mxPoint x="718" y="270" />
            </Array>
          </mxGeometry>
        </mxCell>
        <mxCell id="2AR0JGc42Wk-_SkHoWOv-3" value="class" style="rounded=0;whiteSpace=wrap;html=1;fontStyle=1;fontSize=17;fillColor=#dae8fc;strokeColor=#6c8ebf;" vertex="1" parent="1">
          <mxGeometry x="450" y="190" width="156" height="50" as="geometry" />
        </mxCell>
        <mxCell id="2AR0JGc42Wk-_SkHoWOv-11" style="edgeStyle=orthogonalEdgeStyle;rounded=0;orthogonalLoop=1;jettySize=auto;html=1;entryX=0.5;entryY=0;entryDx=0;entryDy=0;" edge="1" parent="1" source="2AR0JGc42Wk-_SkHoWOv-7" target="2AR0JGc42Wk-_SkHoWOv-9">
          <mxGeometry relative="1" as="geometry" />
        </mxCell>
        <mxCell id="2AR0JGc42Wk-_SkHoWOv-12" style="edgeStyle=orthogonalEdgeStyle;rounded=0;orthogonalLoop=1;jettySize=auto;html=1;" edge="1" parent="1" source="2AR0JGc42Wk-_SkHoWOv-7" target="2AR0JGc42Wk-_SkHoWOv-10">
          <mxGeometry relative="1" as="geometry" />
        </mxCell>
        <mxCell id="2AR0JGc42Wk-_SkHoWOv-7" value="Association" style="rounded=0;whiteSpace=wrap;html=1;fontStyle=1;fontSize=17;fillColor=#d5e8d4;strokeColor=#82b366;" vertex="1" parent="1">
          <mxGeometry x="280" y="300" width="156" height="50" as="geometry" />
        </mxCell>
        <mxCell id="2AR0JGc42Wk-_SkHoWOv-22" style="edgeStyle=orthogonalEdgeStyle;rounded=0;orthogonalLoop=1;jettySize=auto;html=1;entryX=0;entryY=0.5;entryDx=0;entryDy=0;" edge="1" parent="1" source="2AR0JGc42Wk-_SkHoWOv-8" target="2AR0JGc42Wk-_SkHoWOv-17">
          <mxGeometry relative="1" as="geometry" />
        </mxCell>
        <mxCell id="2AR0JGc42Wk-_SkHoWOv-23" style="edgeStyle=orthogonalEdgeStyle;rounded=0;orthogonalLoop=1;jettySize=auto;html=1;entryX=0;entryY=0.5;entryDx=0;entryDy=0;" edge="1" parent="1" source="2AR0JGc42Wk-_SkHoWOv-8" target="2AR0JGc42Wk-_SkHoWOv-18">
          <mxGeometry relative="1" as="geometry" />
        </mxCell>
        <mxCell id="2AR0JGc42Wk-_SkHoWOv-24" style="edgeStyle=orthogonalEdgeStyle;rounded=0;orthogonalLoop=1;jettySize=auto;html=1;entryX=0;entryY=0.5;entryDx=0;entryDy=0;" edge="1" parent="1" source="2AR0JGc42Wk-_SkHoWOv-8" target="2AR0JGc42Wk-_SkHoWOv-19">
          <mxGeometry relative="1" as="geometry" />
        </mxCell>
        <mxCell id="2AR0JGc42Wk-_SkHoWOv-25" style="edgeStyle=orthogonalEdgeStyle;rounded=0;orthogonalLoop=1;jettySize=auto;html=1;entryX=0;entryY=0.5;entryDx=0;entryDy=0;" edge="1" parent="1" source="2AR0JGc42Wk-_SkHoWOv-8" target="2AR0JGc42Wk-_SkHoWOv-20">
          <mxGeometry relative="1" as="geometry" />
        </mxCell>
        <mxCell id="2AR0JGc42Wk-_SkHoWOv-26" style="edgeStyle=orthogonalEdgeStyle;rounded=0;orthogonalLoop=1;jettySize=auto;html=1;entryX=0;entryY=0.5;entryDx=0;entryDy=0;" edge="1" parent="1" source="2AR0JGc42Wk-_SkHoWOv-8" target="2AR0JGc42Wk-_SkHoWOv-21">
          <mxGeometry relative="1" as="geometry" />
        </mxCell>
        <mxCell id="2AR0JGc42Wk-_SkHoWOv-8" value="Inheritance" style="rounded=0;whiteSpace=wrap;html=1;fontStyle=1;fontSize=17;fillColor=#ffe6cc;strokeColor=#d79b00;" vertex="1" parent="1">
          <mxGeometry x="640" y="300" width="156" height="50" as="geometry" />
        </mxCell>
        <mxCell id="2AR0JGc42Wk-_SkHoWOv-9" value="composition" style="rounded=0;whiteSpace=wrap;html=1;fontStyle=1;fontSize=17;fillColor=#60a917;fontColor=#ffffff;strokeColor=#2D7600;" vertex="1" parent="1">
          <mxGeometry x="170" y="410" width="156" height="50" as="geometry" />
        </mxCell>
        <mxCell id="2AR0JGc42Wk-_SkHoWOv-10" value="aggregation" style="rounded=0;whiteSpace=wrap;html=1;fontStyle=1;fontSize=17;fillColor=#008a00;fontColor=#ffffff;strokeColor=#005700;" vertex="1" parent="1">
          <mxGeometry x="380" y="410" width="156" height="50" as="geometry" />
        </mxCell>
        <mxCell id="2AR0JGc42Wk-_SkHoWOv-17" value="single" style="rounded=0;whiteSpace=wrap;html=1;fontStyle=1;fontSize=17;fillColor=#e3c800;fontColor=#000000;strokeColor=#B09500;" vertex="1" parent="1">
          <mxGeometry x="750" y="390" width="156" height="50" as="geometry" />
        </mxCell>
        <mxCell id="2AR0JGc42Wk-_SkHoWOv-18" value="multi-level" style="rounded=0;whiteSpace=wrap;html=1;fontStyle=1;fontSize=17;fillColor=#e3c800;fontColor=#000000;strokeColor=#B09500;" vertex="1" parent="1">
          <mxGeometry x="750" y="450" width="156" height="50" as="geometry" />
        </mxCell>
        <mxCell id="2AR0JGc42Wk-_SkHoWOv-19" value="multiple" style="rounded=0;whiteSpace=wrap;html=1;fontStyle=1;fontSize=17;fillColor=#e51400;fontColor=#ffffff;strokeColor=#B20000;" vertex="1" parent="1">
          <mxGeometry x="750" y="510" width="156" height="50" as="geometry" />
        </mxCell>
        <mxCell id="2AR0JGc42Wk-_SkHoWOv-20" value="hierarchical" style="rounded=0;whiteSpace=wrap;html=1;fontStyle=1;fontSize=17;fillColor=#e3c800;fontColor=#000000;strokeColor=#B09500;" vertex="1" parent="1">
          <mxGeometry x="750" y="570" width="156" height="50" as="geometry" />
        </mxCell>
        <mxCell id="2AR0JGc42Wk-_SkHoWOv-21" value="hybrid" style="rounded=0;whiteSpace=wrap;html=1;fontStyle=1;fontSize=17;fillColor=#e3c800;fontColor=#000000;strokeColor=#B09500;" vertex="1" parent="1">
          <mxGeometry x="750" y="630" width="156" height="50" as="geometry" />
        </mxCell>
      </root>
    </mxGraphModel>
  </diagram>
  <diagram id="j2ygQdk5Tznr8dP6A1wW" name="Page-4">
    <mxGraphModel dx="1242" dy="828" grid="1" gridSize="10" guides="1" tooltips="1" connect="1" arrows="1" fold="1" page="1" pageScale="1" pageWidth="827" pageHeight="1169" math="0" shadow="0">
      <root>
        <mxCell id="0" />
        <mxCell id="1" parent="0" />
        <mxCell id="o3Vt9uQOR6fOTjZ0ZRyT-1" style="edgeStyle=orthogonalEdgeStyle;rounded=0;orthogonalLoop=1;jettySize=auto;html=1;" edge="1" parent="1" source="o3Vt9uQOR6fOTjZ0ZRyT-2" target="o3Vt9uQOR6fOTjZ0ZRyT-3">
          <mxGeometry relative="1" as="geometry" />
        </mxCell>
        <mxCell id="o3Vt9uQOR6fOTjZ0ZRyT-2" value="0x10000" style="rounded=0;whiteSpace=wrap;html=1;fontStyle=1;fontSize=15;fillColor=#dae8fc;strokeColor=#6c8ebf;" vertex="1" parent="1">
          <mxGeometry x="70" y="590" width="110" height="50" as="geometry" />
        </mxCell>
        <mxCell id="o3Vt9uQOR6fOTjZ0ZRyT-3" value="" style="rounded=0;whiteSpace=wrap;html=1;fontStyle=1;fontSize=15;fillColor=#fff2cc;strokeColor=#d6b656;" vertex="1" parent="1">
          <mxGeometry x="260" y="515" width="320" height="200" as="geometry" />
        </mxCell>
        <mxCell id="o3Vt9uQOR6fOTjZ0ZRyT-4" value="0x10000" style="text;html=1;strokeColor=none;fillColor=none;align=left;verticalAlign=middle;whiteSpace=wrap;rounded=0;fontStyle=1;fontSize=19;" vertex="1" parent="1">
          <mxGeometry x="260" y="480" width="100" height="30" as="geometry" />
        </mxCell>
        <mxCell id="o3Vt9uQOR6fOTjZ0ZRyT-5" value="object of Person Class" style="text;html=1;strokeColor=none;fillColor=none;align=left;verticalAlign=middle;whiteSpace=wrap;rounded=0;fontStyle=1;fontSize=19;" vertex="1" parent="1">
          <mxGeometry x="260" y="720" width="320" height="30" as="geometry" />
        </mxCell>
        <mxCell id="o3Vt9uQOR6fOTjZ0ZRyT-6" value="0x11000" style="text;html=1;strokeColor=none;fillColor=none;align=left;verticalAlign=middle;whiteSpace=wrap;rounded=0;fontStyle=1;fontSize=19;" vertex="1" parent="1">
          <mxGeometry x="70" y="560" width="100" height="30" as="geometry" />
        </mxCell>
        <mxCell id="o3Vt9uQOR6fOTjZ0ZRyT-7" value="person1&lt;br&gt;(reference)" style="text;html=1;strokeColor=none;fillColor=none;align=left;verticalAlign=middle;whiteSpace=wrap;rounded=0;fontStyle=1;fontSize=19;" vertex="1" parent="1">
          <mxGeometry x="70" y="650" width="100" height="50" as="geometry" />
        </mxCell>
        <mxCell id="o3Vt9uQOR6fOTjZ0ZRyT-8" value="name: &quot;person1&quot;&lt;br style=&quot;font-size: 23px;&quot;&gt;age: 20&lt;br style=&quot;font-size: 23px;&quot;&gt;" style="text;html=1;strokeColor=none;fillColor=none;align=left;verticalAlign=top;whiteSpace=wrap;rounded=0;fontStyle=1;fontSize=23;" vertex="1" parent="1">
          <mxGeometry x="294" y="540" width="256" height="70" as="geometry" />
        </mxCell>
        <mxCell id="o3Vt9uQOR6fOTjZ0ZRyT-9" value="&lt;div style=&quot;color: rgb(0, 0, 0); background-color: rgb(255, 255, 255); font-family: Menlo, Monaco, &amp;quot;Courier New&amp;quot;, monospace; font-weight: normal; font-size: 29px; line-height: 44px;&quot;&gt;&lt;div&gt;&lt;span style=&quot;color: #0000ff;&quot;&gt;const&lt;/span&gt;&lt;span style=&quot;color: #000000;&quot;&gt; &lt;/span&gt;&lt;span style=&quot;color: #0070c1;&quot;&gt;person&lt;/span&gt;&lt;span style=&quot;color: #000000;&quot;&gt; = &lt;/span&gt;&lt;span style=&quot;color: #0000ff;&quot;&gt;new&lt;/span&gt;&lt;span style=&quot;color: #000000;&quot;&gt; &lt;/span&gt;&lt;span style=&quot;color: #267f99;&quot;&gt;Person&lt;/span&gt;&lt;span style=&quot;color: #000000;&quot;&gt;(&lt;/span&gt;&lt;span style=&quot;color: #a31515;&quot;&gt;&#39;person1&#39;&lt;/span&gt;&lt;span style=&quot;color: #000000;&quot;&gt;, &lt;/span&gt;&lt;span style=&quot;color: #098658;&quot;&gt;20&lt;/span&gt;&lt;span style=&quot;color: #000000;&quot;&gt;, &lt;/span&gt;&lt;span style=&quot;color: #a31515;&quot;&gt;&#39;pune&#39;&lt;/span&gt;&lt;span style=&quot;color: #000000;&quot;&gt;, &lt;/span&gt;&lt;span style=&quot;color: #a31515;&quot;&gt;&#39;mh&#39;&lt;/span&gt;&lt;span style=&quot;color: #000000;&quot;&gt;, &lt;/span&gt;&lt;span style=&quot;color: #a31515;&quot;&gt;&#39;india&#39;&lt;/span&gt;&lt;span style=&quot;color: #000000;&quot;&gt;, &lt;/span&gt;&lt;span style=&quot;color: #a31515;&quot;&gt;&#39;411041&#39;&lt;/span&gt;&lt;span style=&quot;color: #000000;&quot;&gt;)&lt;/span&gt;&lt;/div&gt;&lt;/div&gt;" style="text;whiteSpace=wrap;html=1;" vertex="1" parent="1">
          <mxGeometry x="60" y="290" width="750" height="120" as="geometry" />
        </mxCell>
        <mxCell id="o3Vt9uQOR6fOTjZ0ZRyT-19" style="edgeStyle=orthogonalEdgeStyle;rounded=0;orthogonalLoop=1;jettySize=auto;html=1;" edge="1" parent="1" source="o3Vt9uQOR6fOTjZ0ZRyT-10" target="o3Vt9uQOR6fOTjZ0ZRyT-12">
          <mxGeometry relative="1" as="geometry" />
        </mxCell>
        <mxCell id="o3Vt9uQOR6fOTjZ0ZRyT-10" value="0x12000" style="rounded=0;whiteSpace=wrap;html=1;fillColor=#dae8fc;strokeColor=#6c8ebf;fontStyle=1;fontSize=14;" vertex="1" parent="1">
          <mxGeometry x="294" y="630" width="120" height="40" as="geometry" />
        </mxCell>
        <mxCell id="o3Vt9uQOR6fOTjZ0ZRyT-11" value="address" style="text;html=1;strokeColor=none;fillColor=none;align=left;verticalAlign=middle;whiteSpace=wrap;rounded=0;fontStyle=1;fontSize=19;" vertex="1" parent="1">
          <mxGeometry x="294" y="670" width="100" height="30" as="geometry" />
        </mxCell>
        <mxCell id="o3Vt9uQOR6fOTjZ0ZRyT-12" value="" style="rounded=0;whiteSpace=wrap;html=1;fontStyle=1;fontSize=15;fillColor=#fff2cc;strokeColor=#d6b656;" vertex="1" parent="1">
          <mxGeometry x="650" y="515" width="320" height="200" as="geometry" />
        </mxCell>
        <mxCell id="o3Vt9uQOR6fOTjZ0ZRyT-13" value="0x12000" style="text;html=1;strokeColor=none;fillColor=none;align=left;verticalAlign=middle;whiteSpace=wrap;rounded=0;fontStyle=1;fontSize=19;" vertex="1" parent="1">
          <mxGeometry x="650" y="480" width="100" height="30" as="geometry" />
        </mxCell>
        <mxCell id="o3Vt9uQOR6fOTjZ0ZRyT-14" value="object of Address Class" style="text;html=1;strokeColor=none;fillColor=none;align=left;verticalAlign=middle;whiteSpace=wrap;rounded=0;fontStyle=1;fontSize=19;" vertex="1" parent="1">
          <mxGeometry x="650" y="720" width="320" height="30" as="geometry" />
        </mxCell>
        <mxCell id="o3Vt9uQOR6fOTjZ0ZRyT-15" value="city: &quot;pune&quot;&lt;br&gt;state: &quot;mh&quot;&lt;br&gt;country: &quot;india&quot;&lt;br&gt;zipCode: &quot;411041" style="text;html=1;strokeColor=none;fillColor=none;align=left;verticalAlign=top;whiteSpace=wrap;rounded=0;fontStyle=1;fontSize=23;" vertex="1" parent="1">
          <mxGeometry x="687" y="550" width="256" height="120" as="geometry" />
        </mxCell>
      </root>
    </mxGraphModel>
  </diagram>
  <diagram id="L4GFmAqKAwdYQ4_Qc6zo" name="Page-5">
    <mxGraphModel dx="857" dy="571" grid="1" gridSize="10" guides="1" tooltips="1" connect="1" arrows="1" fold="1" page="1" pageScale="1" pageWidth="827" pageHeight="1169" math="0" shadow="0">
      <root>
        <mxCell id="0" />
        <mxCell id="1" parent="0" />
        <mxCell id="vJiZNwmRXo9oy2rdxakv-1" value="&lt;div style=&quot;color: rgb(0, 0, 0); background-color: rgb(255, 255, 255); font-family: Menlo, Monaco, &amp;quot;Courier New&amp;quot;, monospace; font-weight: normal; font-size: 29px; line-height: 44px;&quot;&gt;&lt;div&gt;&lt;span style=&quot;color: #0000ff;&quot;&gt;class&lt;/span&gt;&lt;span style=&quot;color: #000000;&quot;&gt; &lt;/span&gt;&lt;span style=&quot;color: #267f99;&quot;&gt;Person&lt;/span&gt;&lt;span style=&quot;color: #000000;&quot;&gt; {&lt;/span&gt;&lt;/div&gt;&lt;div&gt;&lt;span style=&quot;color: #000000;&quot;&gt;  &lt;/span&gt;&lt;span style=&quot;color: #0000ff;&quot;&gt;&lt;span style=&quot;white-space: pre;&quot;&gt;&#x9;&lt;/span&gt;protected&lt;/span&gt;&lt;span style=&quot;color: #000000;&quot;&gt; &lt;/span&gt;&lt;span style=&quot;color: #001080;&quot;&gt;name&lt;/span&gt;&lt;span style=&quot;color: #000000;&quot;&gt;: &lt;/span&gt;&lt;span style=&quot;color: #267f99;&quot;&gt;String&lt;/span&gt;&lt;/div&gt;&lt;div&gt;&lt;span style=&quot;color: #000000;&quot;&gt;  &lt;/span&gt;&lt;span style=&quot;color: #0000ff;&quot;&gt;&lt;span style=&quot;white-space: pre;&quot;&gt;&#x9;&lt;/span&gt;protected&lt;/span&gt;&lt;span style=&quot;color: #000000;&quot;&gt; &lt;/span&gt;&lt;span style=&quot;color: #001080;&quot;&gt;address&lt;/span&gt;&lt;span style=&quot;color: #000000;&quot;&gt;: &lt;/span&gt;&lt;span style=&quot;color: #267f99;&quot;&gt;String&lt;/span&gt;&lt;/div&gt;&lt;div&gt;&lt;span style=&quot;color: #000000;&quot;&gt;}&lt;/span&gt;&lt;/div&gt;&lt;br&gt;&lt;div&gt;&lt;span style=&quot;color: #0000ff;&quot;&gt;class&lt;/span&gt;&lt;span style=&quot;color: #000000;&quot;&gt; &lt;/span&gt;&lt;span style=&quot;color: #267f99;&quot;&gt;Student&lt;/span&gt;&lt;span style=&quot;color: #000000;&quot;&gt; &lt;/span&gt;&lt;span style=&quot;color: #0000ff;&quot;&gt;extends&lt;/span&gt;&lt;span style=&quot;color: #000000;&quot;&gt; &lt;/span&gt;&lt;span style=&quot;color: #267f99;&quot;&gt;Person&lt;/span&gt;&lt;span style=&quot;color: #000000;&quot;&gt; {&lt;/span&gt;&lt;/div&gt;&lt;div&gt;&lt;span style=&quot;color: #000000;&quot;&gt;  &lt;/span&gt;&lt;span style=&quot;color: #0000ff;&quot;&gt;&lt;span style=&quot;white-space: pre;&quot;&gt;&#x9;&lt;/span&gt;protected&lt;/span&gt;&lt;span style=&quot;color: #000000;&quot;&gt; &lt;/span&gt;&lt;span style=&quot;color: #001080;&quot;&gt;rollNo&lt;/span&gt;&lt;span style=&quot;color: #000000;&quot;&gt;: &lt;/span&gt;&lt;span style=&quot;color: #267f99;&quot;&gt;Number&lt;/span&gt;&lt;/div&gt;&lt;div&gt;&lt;span style=&quot;color: #000000;&quot;&gt;  &lt;/span&gt;&lt;span style=&quot;color: #0000ff;&quot;&gt;&lt;span style=&quot;white-space: pre;&quot;&gt;&#x9;&lt;/span&gt;private&lt;/span&gt;&lt;span style=&quot;color: #000000;&quot;&gt; &lt;/span&gt;&lt;span style=&quot;color: #001080;&quot;&gt;marks&lt;/span&gt;&lt;span style=&quot;color: #000000;&quot;&gt;: &lt;/span&gt;&lt;span style=&quot;color: #267f99;&quot;&gt;Number&lt;/span&gt;&lt;/div&gt;&lt;div&gt;&lt;span style=&quot;color: #000000;&quot;&gt;}&lt;/span&gt;&lt;/div&gt;&lt;br&gt;&lt;div&gt;&lt;span style=&quot;color: #0000ff;&quot;&gt;const&lt;/span&gt;&lt;span style=&quot;color: #000000;&quot;&gt; &lt;/span&gt;&lt;span style=&quot;color: #0070c1;&quot;&gt;student&lt;/span&gt;&lt;span style=&quot;color: #000000;&quot;&gt; = &lt;/span&gt;&lt;span style=&quot;color: #0000ff;&quot;&gt;new&lt;/span&gt;&lt;span style=&quot;color: #000000;&quot;&gt; &lt;/span&gt;&lt;span style=&quot;color: #267f99;&quot;&gt;Student&lt;/span&gt;&lt;span style=&quot;color: #000000;&quot;&gt;()&lt;/span&gt;&lt;/div&gt;&lt;/div&gt;" style="text;whiteSpace=wrap;html=1;" vertex="1" parent="1">
          <mxGeometry x="50" y="20" width="640" height="500" as="geometry" />
        </mxCell>
        <mxCell id="a-toqvGlpPZXM2ZcXel--1" style="edgeStyle=orthogonalEdgeStyle;rounded=0;orthogonalLoop=1;jettySize=auto;html=1;" edge="1" parent="1" source="a-toqvGlpPZXM2ZcXel--2" target="a-toqvGlpPZXM2ZcXel--3">
          <mxGeometry relative="1" as="geometry" />
        </mxCell>
        <mxCell id="a-toqvGlpPZXM2ZcXel--2" value="0x10000" style="rounded=0;whiteSpace=wrap;html=1;fontStyle=1;fontSize=15;fillColor=#dae8fc;strokeColor=#6c8ebf;" vertex="1" parent="1">
          <mxGeometry x="50" y="707" width="110" height="50" as="geometry" />
        </mxCell>
        <mxCell id="a-toqvGlpPZXM2ZcXel--3" value="" style="rounded=0;whiteSpace=wrap;html=1;fontStyle=1;fontSize=15;fillColor=#fff2cc;strokeColor=#d6b656;" vertex="1" parent="1">
          <mxGeometry x="250" y="615" width="230" height="235" as="geometry" />
        </mxCell>
        <mxCell id="a-toqvGlpPZXM2ZcXel--4" value="0x10000" style="text;html=1;strokeColor=none;fillColor=none;align=left;verticalAlign=middle;whiteSpace=wrap;rounded=0;fontStyle=1;fontSize=19;" vertex="1" parent="1">
          <mxGeometry x="250" y="580" width="100" height="30" as="geometry" />
        </mxCell>
        <mxCell id="a-toqvGlpPZXM2ZcXel--5" value="object of Student Class" style="text;html=1;strokeColor=none;fillColor=none;align=left;verticalAlign=middle;whiteSpace=wrap;rounded=0;fontStyle=1;fontSize=19;" vertex="1" parent="1">
          <mxGeometry x="250" y="860" width="320" height="30" as="geometry" />
        </mxCell>
        <mxCell id="a-toqvGlpPZXM2ZcXel--6" value="0x11000" style="text;html=1;strokeColor=none;fillColor=none;align=left;verticalAlign=middle;whiteSpace=wrap;rounded=0;fontStyle=1;fontSize=19;" vertex="1" parent="1">
          <mxGeometry x="50" y="677" width="100" height="30" as="geometry" />
        </mxCell>
        <mxCell id="a-toqvGlpPZXM2ZcXel--7" value="student&lt;br&gt;(reference)" style="text;html=1;strokeColor=none;fillColor=none;align=left;verticalAlign=middle;whiteSpace=wrap;rounded=0;fontStyle=1;fontSize=19;" vertex="1" parent="1">
          <mxGeometry x="50" y="767" width="100" height="50" as="geometry" />
        </mxCell>
        <mxCell id="a-toqvGlpPZXM2ZcXel--8" value="rollNo: 1&lt;br&gt;marks: 80" style="text;html=1;strokeColor=none;fillColor=none;align=left;verticalAlign=top;whiteSpace=wrap;rounded=0;fontStyle=1;fontSize=23;" vertex="1" parent="1">
          <mxGeometry x="276" y="760" width="184" height="70" as="geometry" />
        </mxCell>
        <mxCell id="a-toqvGlpPZXM2ZcXel--11" value="" style="rounded=0;whiteSpace=wrap;html=1;fillColor=#e1d5e7;strokeColor=#9673a6;" vertex="1" parent="1">
          <mxGeometry x="276" y="630" width="174" height="80" as="geometry" />
        </mxCell>
        <mxCell id="a-toqvGlpPZXM2ZcXel--12" value="name: &quot;&quot;&lt;br&gt;address: &quot;&quot;" style="text;html=1;strokeColor=none;fillColor=none;align=left;verticalAlign=top;whiteSpace=wrap;rounded=0;fontStyle=1;fontSize=23;" vertex="1" parent="1">
          <mxGeometry x="296" y="640" width="134" height="60" as="geometry" />
        </mxCell>
        <mxCell id="a-toqvGlpPZXM2ZcXel--13" value="Person" style="text;html=1;strokeColor=none;fillColor=none;align=left;verticalAlign=top;whiteSpace=wrap;rounded=0;fontStyle=1;fontSize=23;" vertex="1" parent="1">
          <mxGeometry x="318" y="710" width="100" height="40" as="geometry" />
        </mxCell>
        <mxCell id="hpPc7-dKUi5dcBI6sRK3-1" style="edgeStyle=orthogonalEdgeStyle;rounded=0;orthogonalLoop=1;jettySize=auto;html=1;" edge="1" parent="1" source="hpPc7-dKUi5dcBI6sRK3-2" target="hpPc7-dKUi5dcBI6sRK3-3">
          <mxGeometry relative="1" as="geometry" />
        </mxCell>
        <mxCell id="hpPc7-dKUi5dcBI6sRK3-2" value="0x15000" style="rounded=0;whiteSpace=wrap;html=1;fontStyle=1;fontSize=15;fillColor=#dae8fc;strokeColor=#6c8ebf;" vertex="1" parent="1">
          <mxGeometry x="600" y="702" width="110" height="50" as="geometry" />
        </mxCell>
        <mxCell id="hpPc7-dKUi5dcBI6sRK3-3" value="" style="rounded=0;whiteSpace=wrap;html=1;fontStyle=1;fontSize=15;fillColor=#fff2cc;strokeColor=#d6b656;" vertex="1" parent="1">
          <mxGeometry x="800" y="610" width="230" height="235" as="geometry" />
        </mxCell>
        <mxCell id="hpPc7-dKUi5dcBI6sRK3-4" value="0x15000" style="text;html=1;strokeColor=none;fillColor=none;align=left;verticalAlign=middle;whiteSpace=wrap;rounded=0;fontStyle=1;fontSize=19;" vertex="1" parent="1">
          <mxGeometry x="800" y="575" width="100" height="30" as="geometry" />
        </mxCell>
        <mxCell id="hpPc7-dKUi5dcBI6sRK3-5" value="object of Student Class" style="text;html=1;strokeColor=none;fillColor=none;align=left;verticalAlign=middle;whiteSpace=wrap;rounded=0;fontStyle=1;fontSize=19;" vertex="1" parent="1">
          <mxGeometry x="800" y="855" width="320" height="30" as="geometry" />
        </mxCell>
        <mxCell id="hpPc7-dKUi5dcBI6sRK3-6" value="0x14000" style="text;html=1;strokeColor=none;fillColor=none;align=left;verticalAlign=middle;whiteSpace=wrap;rounded=0;fontStyle=1;fontSize=19;" vertex="1" parent="1">
          <mxGeometry x="600" y="672" width="100" height="30" as="geometry" />
        </mxCell>
        <mxCell id="hpPc7-dKUi5dcBI6sRK3-7" value="student2&lt;br&gt;(reference)" style="text;html=1;strokeColor=none;fillColor=none;align=left;verticalAlign=middle;whiteSpace=wrap;rounded=0;fontStyle=1;fontSize=19;" vertex="1" parent="1">
          <mxGeometry x="600" y="762" width="100" height="50" as="geometry" />
        </mxCell>
        <mxCell id="hpPc7-dKUi5dcBI6sRK3-8" value="rollNo: 2&lt;br&gt;marks: 70" style="text;html=1;strokeColor=none;fillColor=none;align=left;verticalAlign=top;whiteSpace=wrap;rounded=0;fontStyle=1;fontSize=23;" vertex="1" parent="1">
          <mxGeometry x="828" y="752.5" width="184" height="69" as="geometry" />
        </mxCell>
        <mxCell id="hpPc7-dKUi5dcBI6sRK3-9" value="" style="rounded=0;whiteSpace=wrap;html=1;fillColor=#e1d5e7;strokeColor=#9673a6;" vertex="1" parent="1">
          <mxGeometry x="826" y="625" width="174" height="80" as="geometry" />
        </mxCell>
        <mxCell id="hpPc7-dKUi5dcBI6sRK3-10" value="name: &quot;&quot;&lt;br&gt;address: &quot;&quot;" style="text;html=1;strokeColor=none;fillColor=none;align=left;verticalAlign=top;whiteSpace=wrap;rounded=0;fontStyle=1;fontSize=23;" vertex="1" parent="1">
          <mxGeometry x="846" y="635" width="134" height="60" as="geometry" />
        </mxCell>
        <mxCell id="hpPc7-dKUi5dcBI6sRK3-11" value="Person" style="text;html=1;strokeColor=none;fillColor=none;align=left;verticalAlign=top;whiteSpace=wrap;rounded=0;fontStyle=1;fontSize=23;" vertex="1" parent="1">
          <mxGeometry x="868" y="705" width="100" height="40" as="geometry" />
        </mxCell>
        <mxCell id="bwxOupvjc5uNM2YjQw2y-1" style="edgeStyle=orthogonalEdgeStyle;rounded=0;orthogonalLoop=1;jettySize=auto;html=1;" edge="1" parent="1" source="bwxOupvjc5uNM2YjQw2y-2" target="bwxOupvjc5uNM2YjQw2y-3">
          <mxGeometry relative="1" as="geometry" />
        </mxCell>
        <mxCell id="bwxOupvjc5uNM2YjQw2y-2" value="0x15000" style="rounded=0;whiteSpace=wrap;html=1;fontStyle=1;fontSize=15;fillColor=#dae8fc;strokeColor=#6c8ebf;" vertex="1" parent="1">
          <mxGeometry x="40" y="1237" width="110" height="50" as="geometry" />
        </mxCell>
        <mxCell id="bwxOupvjc5uNM2YjQw2y-3" value="" style="rounded=0;whiteSpace=wrap;html=1;fontStyle=1;fontSize=15;fillColor=#fff2cc;strokeColor=#d6b656;" vertex="1" parent="1">
          <mxGeometry x="240" y="1085" width="260" height="355" as="geometry" />
        </mxCell>
        <mxCell id="bwxOupvjc5uNM2YjQw2y-4" value="0x15000" style="text;html=1;strokeColor=none;fillColor=none;align=left;verticalAlign=middle;whiteSpace=wrap;rounded=0;fontStyle=1;fontSize=19;" vertex="1" parent="1">
          <mxGeometry x="240" y="1050" width="100" height="30" as="geometry" />
        </mxCell>
        <mxCell id="bwxOupvjc5uNM2YjQw2y-5" value="object of Manager Class" style="text;html=1;strokeColor=none;fillColor=none;align=left;verticalAlign=middle;whiteSpace=wrap;rounded=0;fontStyle=1;fontSize=19;" vertex="1" parent="1">
          <mxGeometry x="240" y="1450" width="270" height="30" as="geometry" />
        </mxCell>
        <mxCell id="bwxOupvjc5uNM2YjQw2y-6" value="0x14000" style="text;html=1;strokeColor=none;fillColor=none;align=left;verticalAlign=middle;whiteSpace=wrap;rounded=0;fontStyle=1;fontSize=19;" vertex="1" parent="1">
          <mxGeometry x="40" y="1207" width="100" height="30" as="geometry" />
        </mxCell>
        <mxCell id="bwxOupvjc5uNM2YjQw2y-7" value="manager&lt;br&gt;(reference)" style="text;html=1;strokeColor=none;fillColor=none;align=left;verticalAlign=middle;whiteSpace=wrap;rounded=0;fontStyle=1;fontSize=19;" vertex="1" parent="1">
          <mxGeometry x="40" y="1297" width="100" height="50" as="geometry" />
        </mxCell>
        <mxCell id="bwxOupvjc5uNM2YjQw2y-8" value="department: &quot;&quot;" style="text;html=1;strokeColor=none;fillColor=none;align=left;verticalAlign=top;whiteSpace=wrap;rounded=0;fontStyle=1;fontSize=23;" vertex="1" parent="1">
          <mxGeometry x="253" y="1400" width="184" height="29" as="geometry" />
        </mxCell>
        <mxCell id="bwxOupvjc5uNM2YjQw2y-9" value="" style="rounded=0;whiteSpace=wrap;html=1;fillColor=#e1d5e7;strokeColor=#9673a6;" vertex="1" parent="1">
          <mxGeometry x="253" y="1100" width="234" height="250" as="geometry" />
        </mxCell>
        <mxCell id="bwxOupvjc5uNM2YjQw2y-11" value="Employee" style="text;html=1;strokeColor=none;fillColor=none;align=center;verticalAlign=top;whiteSpace=wrap;rounded=0;fontStyle=1;fontSize=23;" vertex="1" parent="1">
          <mxGeometry x="318" y="1350" width="100" height="40" as="geometry" />
        </mxCell>
        <mxCell id="bwxOupvjc5uNM2YjQw2y-13" value="" style="rounded=0;whiteSpace=wrap;html=1;fillColor=#ffe6cc;strokeColor=#d79b00;" vertex="1" parent="1">
          <mxGeometry x="266" y="1110" width="204" height="90" as="geometry" />
        </mxCell>
        <mxCell id="bwxOupvjc5uNM2YjQw2y-14" value="Person" style="text;html=1;strokeColor=none;fillColor=none;align=center;verticalAlign=top;whiteSpace=wrap;rounded=0;fontStyle=1;fontSize=23;" vertex="1" parent="1">
          <mxGeometry x="315" y="1207" width="100" height="40" as="geometry" />
        </mxCell>
        <mxCell id="bwxOupvjc5uNM2YjQw2y-16" value="name: &quot;&quot;&lt;br&gt;address: &quot;&quot;" style="text;html=1;strokeColor=none;fillColor=none;align=left;verticalAlign=top;whiteSpace=wrap;rounded=0;fontStyle=1;fontSize=23;" vertex="1" parent="1">
          <mxGeometry x="280" y="1120" width="140" height="57.5" as="geometry" />
        </mxCell>
        <mxCell id="bwxOupvjc5uNM2YjQw2y-17" value="id: 0&lt;br&gt;salary: 0" style="text;html=1;strokeColor=none;fillColor=none;align=left;verticalAlign=top;whiteSpace=wrap;rounded=0;fontStyle=1;fontSize=23;" vertex="1" parent="1">
          <mxGeometry x="274" y="1270" width="140" height="57.5" as="geometry" />
        </mxCell>
        <mxCell id="PsK-5DOq6SuFNGqPvSiQ-1" style="edgeStyle=orthogonalEdgeStyle;rounded=0;orthogonalLoop=1;jettySize=auto;html=1;" edge="1" parent="1" source="PsK-5DOq6SuFNGqPvSiQ-2" target="PsK-5DOq6SuFNGqPvSiQ-3">
          <mxGeometry relative="1" as="geometry" />
        </mxCell>
        <mxCell id="PsK-5DOq6SuFNGqPvSiQ-2" value="0x10000" style="rounded=0;whiteSpace=wrap;html=1;fontStyle=1;fontSize=15;fillColor=#dae8fc;strokeColor=#6c8ebf;" vertex="1" parent="1">
          <mxGeometry x="50" y="1697" width="110" height="50" as="geometry" />
        </mxCell>
        <mxCell id="PsK-5DOq6SuFNGqPvSiQ-3" value="" style="rounded=0;whiteSpace=wrap;html=1;fontStyle=1;fontSize=15;fillColor=#fff2cc;strokeColor=#d6b656;" vertex="1" parent="1">
          <mxGeometry x="250" y="1605" width="230" height="235" as="geometry" />
        </mxCell>
        <mxCell id="PsK-5DOq6SuFNGqPvSiQ-4" value="0x10000" style="text;html=1;strokeColor=none;fillColor=none;align=left;verticalAlign=middle;whiteSpace=wrap;rounded=0;fontStyle=1;fontSize=19;" vertex="1" parent="1">
          <mxGeometry x="250" y="1570" width="100" height="30" as="geometry" />
        </mxCell>
        <mxCell id="PsK-5DOq6SuFNGqPvSiQ-5" value="0x11000" style="text;html=1;strokeColor=none;fillColor=none;align=left;verticalAlign=middle;whiteSpace=wrap;rounded=0;fontStyle=1;fontSize=19;" vertex="1" parent="1">
          <mxGeometry x="50" y="1667" width="100" height="30" as="geometry" />
        </mxCell>
        <mxCell id="PsK-5DOq6SuFNGqPvSiQ-6" value="s1&lt;br&gt;(reference)" style="text;html=1;strokeColor=none;fillColor=none;align=left;verticalAlign=middle;whiteSpace=wrap;rounded=0;fontStyle=1;fontSize=19;" vertex="1" parent="1">
          <mxGeometry x="50" y="1754" width="100" height="50" as="geometry" />
        </mxCell>
        <mxCell id="PsK-5DOq6SuFNGqPvSiQ-7" value="roll: 1" style="text;html=1;strokeColor=none;fillColor=none;align=left;verticalAlign=top;whiteSpace=wrap;rounded=0;fontStyle=1;fontSize=19;" vertex="1" parent="1">
          <mxGeometry x="266" y="1773" width="184" height="40" as="geometry" />
        </mxCell>
        <mxCell id="PsK-5DOq6SuFNGqPvSiQ-8" value="" style="rounded=0;whiteSpace=wrap;html=1;fillColor=#e1d5e7;strokeColor=#9673a6;" vertex="1" parent="1">
          <mxGeometry x="276" y="1620" width="174" height="100" as="geometry" />
        </mxCell>
        <mxCell id="PsK-5DOq6SuFNGqPvSiQ-9" value="name: &quot;&quot;&lt;br style=&quot;font-size: 17px;&quot;&gt;address: &quot;&quot;" style="text;html=1;strokeColor=none;fillColor=none;align=left;verticalAlign=top;whiteSpace=wrap;rounded=0;fontStyle=1;fontSize=17;" vertex="1" parent="1">
          <mxGeometry x="291" y="1630" width="134" height="60" as="geometry" />
        </mxCell>
        <mxCell id="PsK-5DOq6SuFNGqPvSiQ-10" value="Person" style="text;html=1;strokeColor=none;fillColor=none;align=center;verticalAlign=top;whiteSpace=wrap;rounded=0;fontStyle=1;fontSize=17;labelBackgroundColor=default;" vertex="1" parent="1">
          <mxGeometry x="308" y="1721" width="100" height="33" as="geometry" />
        </mxCell>
        <mxCell id="PsK-5DOq6SuFNGqPvSiQ-11" value="object of Student class" style="text;html=1;strokeColor=none;fillColor=none;align=left;verticalAlign=top;whiteSpace=wrap;rounded=0;fontStyle=1;fontSize=18;" vertex="1" parent="1">
          <mxGeometry x="253" y="1840" width="247" height="70" as="geometry" />
        </mxCell>
        <mxCell id="PsK-5DOq6SuFNGqPvSiQ-12" value="- printInfo()" style="text;html=1;strokeColor=none;fillColor=none;align=left;verticalAlign=top;whiteSpace=wrap;rounded=0;fontStyle=1;fontSize=19;fontColor=#fb1313;" vertex="1" parent="1">
          <mxGeometry x="266" y="1797" width="184" height="40" as="geometry" />
        </mxCell>
        <mxCell id="PsK-5DOq6SuFNGqPvSiQ-13" value="- printInfo()" style="text;html=1;strokeColor=none;fillColor=none;align=left;verticalAlign=top;whiteSpace=wrap;rounded=0;fontStyle=1;fontSize=19;fontColor=#fb1313;" vertex="1" parent="1">
          <mxGeometry x="291" y="1680" width="149" height="40" as="geometry" />
        </mxCell>
        <mxCell id="PsK-5DOq6SuFNGqPvSiQ-14" style="edgeStyle=orthogonalEdgeStyle;rounded=0;orthogonalLoop=1;jettySize=auto;html=1;" edge="1" parent="1" source="PsK-5DOq6SuFNGqPvSiQ-15">
          <mxGeometry relative="1" as="geometry">
            <mxPoint x="250" y="2062.5172413793102" as="targetPoint" />
          </mxGeometry>
        </mxCell>
        <mxCell id="PsK-5DOq6SuFNGqPvSiQ-15" value="0x10000" style="rounded=0;whiteSpace=wrap;html=1;fontStyle=1;fontSize=15;fillColor=#dae8fc;strokeColor=#6c8ebf;" vertex="1" parent="1">
          <mxGeometry x="50" y="2037" width="110" height="50" as="geometry" />
        </mxCell>
        <mxCell id="PsK-5DOq6SuFNGqPvSiQ-17" value="0x10000" style="text;html=1;strokeColor=none;fillColor=none;align=left;verticalAlign=middle;whiteSpace=wrap;rounded=0;fontStyle=1;fontSize=19;" vertex="1" parent="1">
          <mxGeometry x="250" y="1990" width="100" height="30" as="geometry" />
        </mxCell>
        <mxCell id="PsK-5DOq6SuFNGqPvSiQ-18" value="0x11000" style="text;html=1;strokeColor=none;fillColor=none;align=left;verticalAlign=middle;whiteSpace=wrap;rounded=0;fontStyle=1;fontSize=19;" vertex="1" parent="1">
          <mxGeometry x="50" y="2007" width="100" height="30" as="geometry" />
        </mxCell>
        <mxCell id="PsK-5DOq6SuFNGqPvSiQ-19" value="p1&lt;br&gt;(reference)" style="text;html=1;strokeColor=none;fillColor=none;align=left;verticalAlign=middle;whiteSpace=wrap;rounded=0;fontStyle=1;fontSize=19;" vertex="1" parent="1">
          <mxGeometry x="50" y="2097" width="100" height="50" as="geometry" />
        </mxCell>
        <mxCell id="PsK-5DOq6SuFNGqPvSiQ-21" value="" style="rounded=0;whiteSpace=wrap;html=1;fillColor=#e1d5e7;strokeColor=#9673a6;" vertex="1" parent="1">
          <mxGeometry x="253" y="2020" width="174" height="100" as="geometry" />
        </mxCell>
        <mxCell id="PsK-5DOq6SuFNGqPvSiQ-22" value="name: &quot;&quot;&lt;br style=&quot;font-size: 17px;&quot;&gt;address: &quot;&quot;" style="text;html=1;strokeColor=none;fillColor=none;align=left;verticalAlign=top;whiteSpace=wrap;rounded=0;fontStyle=1;fontSize=17;" vertex="1" parent="1">
          <mxGeometry x="268" y="2030" width="134" height="60" as="geometry" />
        </mxCell>
        <mxCell id="PsK-5DOq6SuFNGqPvSiQ-24" value="object of Person class" style="text;html=1;strokeColor=none;fillColor=none;align=left;verticalAlign=top;whiteSpace=wrap;rounded=0;fontStyle=1;fontSize=18;" vertex="1" parent="1">
          <mxGeometry x="253" y="2120" width="247" height="70" as="geometry" />
        </mxCell>
        <mxCell id="PsK-5DOq6SuFNGqPvSiQ-26" value="- printInfo()" style="text;html=1;strokeColor=none;fillColor=none;align=left;verticalAlign=top;whiteSpace=wrap;rounded=0;fontStyle=1;fontSize=19;fontColor=#fb1313;" vertex="1" parent="1">
          <mxGeometry x="268" y="2080" width="184" height="40" as="geometry" />
        </mxCell>
      </root>
    </mxGraphModel>
  </diagram>
  <diagram id="JDU-687AlEPtmeweIY13" name="Page-6">
    <mxGraphModel dx="1242" dy="828" grid="1" gridSize="10" guides="1" tooltips="1" connect="1" arrows="1" fold="1" page="1" pageScale="1" pageWidth="827" pageHeight="1169" math="0" shadow="0">
      <root>
        <mxCell id="0" />
        <mxCell id="1" parent="0" />
        <mxCell id="WFGGNNW9XL3jztE4nboa-1" style="edgeStyle=orthogonalEdgeStyle;rounded=0;orthogonalLoop=1;jettySize=auto;html=1;entryX=0.5;entryY=0;entryDx=0;entryDy=0;" edge="1" parent="1" source="WFGGNNW9XL3jztE4nboa-4" target="WFGGNNW9XL3jztE4nboa-5">
          <mxGeometry relative="1" as="geometry">
            <Array as="points">
              <mxPoint x="1022" y="470" />
              <mxPoint x="882" y="470" />
            </Array>
          </mxGeometry>
        </mxCell>
        <mxCell id="WFGGNNW9XL3jztE4nboa-2" style="edgeStyle=orthogonalEdgeStyle;rounded=0;orthogonalLoop=1;jettySize=auto;html=1;entryX=0.5;entryY=0;entryDx=0;entryDy=0;" edge="1" parent="1" source="WFGGNNW9XL3jztE4nboa-4" target="WFGGNNW9XL3jztE4nboa-6">
          <mxGeometry relative="1" as="geometry" />
        </mxCell>
        <mxCell id="WFGGNNW9XL3jztE4nboa-3" style="edgeStyle=orthogonalEdgeStyle;rounded=0;orthogonalLoop=1;jettySize=auto;html=1;entryX=0.5;entryY=0;entryDx=0;entryDy=0;" edge="1" parent="1" source="WFGGNNW9XL3jztE4nboa-4" target="WFGGNNW9XL3jztE4nboa-8">
          <mxGeometry relative="1" as="geometry">
            <Array as="points">
              <mxPoint x="1022" y="470" />
              <mxPoint x="1162" y="470" />
            </Array>
          </mxGeometry>
        </mxCell>
        <mxCell id="WFGGNNW9XL3jztE4nboa-4" value="Person" style="rounded=0;whiteSpace=wrap;html=1;fontStyle=1;fontSize=15;fillColor=#dae8fc;strokeColor=#6c8ebf;" vertex="1" parent="1">
          <mxGeometry x="967" y="400" width="110" height="50" as="geometry" />
        </mxCell>
        <mxCell id="WFGGNNW9XL3jztE4nboa-5" value="Player" style="rounded=0;whiteSpace=wrap;html=1;fontStyle=1;fontSize=15;fillColor=#fff2cc;strokeColor=#d6b656;" vertex="1" parent="1">
          <mxGeometry x="827" y="510" width="110" height="50" as="geometry" />
        </mxCell>
        <mxCell id="WFGGNNW9XL3jztE4nboa-6" value="Student" style="rounded=0;whiteSpace=wrap;html=1;fontStyle=1;fontSize=15;fillColor=#fff2cc;strokeColor=#d6b656;" vertex="1" parent="1">
          <mxGeometry x="967" y="510" width="110" height="50" as="geometry" />
        </mxCell>
        <mxCell id="WFGGNNW9XL3jztE4nboa-7" style="edgeStyle=orthogonalEdgeStyle;rounded=0;orthogonalLoop=1;jettySize=auto;html=1;entryX=0.5;entryY=0;entryDx=0;entryDy=0;fillColor=#fff2cc;strokeColor=#d6b656;" edge="1" parent="1" source="WFGGNNW9XL3jztE4nboa-8" target="WFGGNNW9XL3jztE4nboa-9">
          <mxGeometry relative="1" as="geometry" />
        </mxCell>
        <mxCell id="WFGGNNW9XL3jztE4nboa-8" value="Employee" style="rounded=0;whiteSpace=wrap;html=1;fontStyle=1;fontSize=15;fillColor=#dae8fc;strokeColor=#6c8ebf;" vertex="1" parent="1">
          <mxGeometry x="1107" y="510" width="110" height="50" as="geometry" />
        </mxCell>
        <mxCell id="WFGGNNW9XL3jztE4nboa-9" value="Manager" style="rounded=0;whiteSpace=wrap;html=1;fontStyle=1;fontSize=15;fillColor=#fff2cc;strokeColor=#d6b656;" vertex="1" parent="1">
          <mxGeometry x="1107" y="620" width="110" height="50" as="geometry" />
        </mxCell>
        <mxCell id="WFGGNNW9XL3jztE4nboa-10" style="edgeStyle=orthogonalEdgeStyle;rounded=0;orthogonalLoop=1;jettySize=auto;html=1;entryX=0.5;entryY=0;entryDx=0;entryDy=0;" edge="1" parent="1" source="WFGGNNW9XL3jztE4nboa-11" target="WFGGNNW9XL3jztE4nboa-12">
          <mxGeometry relative="1" as="geometry" />
        </mxCell>
        <mxCell id="WFGGNNW9XL3jztE4nboa-11" value="Person" style="rounded=0;whiteSpace=wrap;html=1;fontStyle=1;fontSize=15;fillColor=#dae8fc;strokeColor=#6c8ebf;" vertex="1" parent="1">
          <mxGeometry x="40" y="400" width="110" height="50" as="geometry" />
        </mxCell>
        <mxCell id="WFGGNNW9XL3jztE4nboa-12" value="Student" style="rounded=0;whiteSpace=wrap;html=1;fontStyle=1;fontSize=15;fillColor=#fff2cc;strokeColor=#d6b656;" vertex="1" parent="1">
          <mxGeometry x="40" y="510" width="110" height="50" as="geometry" />
        </mxCell>
        <mxCell id="WFGGNNW9XL3jztE4nboa-19" style="edgeStyle=orthogonalEdgeStyle;rounded=0;orthogonalLoop=1;jettySize=auto;html=1;" edge="1" parent="1" source="WFGGNNW9XL3jztE4nboa-16" target="WFGGNNW9XL3jztE4nboa-17">
          <mxGeometry relative="1" as="geometry" />
        </mxCell>
        <mxCell id="WFGGNNW9XL3jztE4nboa-16" value="Person" style="rounded=0;whiteSpace=wrap;html=1;fontStyle=1;fontSize=15;fillColor=#dae8fc;strokeColor=#6c8ebf;" vertex="1" parent="1">
          <mxGeometry x="210" y="400" width="110" height="50" as="geometry" />
        </mxCell>
        <mxCell id="WFGGNNW9XL3jztE4nboa-20" style="edgeStyle=orthogonalEdgeStyle;rounded=0;orthogonalLoop=1;jettySize=auto;html=1;fillColor=#fff2cc;strokeColor=#d6b656;" edge="1" parent="1" source="WFGGNNW9XL3jztE4nboa-17" target="WFGGNNW9XL3jztE4nboa-18">
          <mxGeometry relative="1" as="geometry" />
        </mxCell>
        <mxCell id="WFGGNNW9XL3jztE4nboa-17" value="Employee" style="rounded=0;whiteSpace=wrap;html=1;fontStyle=1;fontSize=15;fillColor=#fff2cc;strokeColor=#d6b656;" vertex="1" parent="1">
          <mxGeometry x="210" y="510" width="110" height="50" as="geometry" />
        </mxCell>
        <mxCell id="WFGGNNW9XL3jztE4nboa-18" value="Manager" style="rounded=0;whiteSpace=wrap;html=1;fontStyle=1;fontSize=15;fillColor=#fff2cc;strokeColor=#d6b656;" vertex="1" parent="1">
          <mxGeometry x="210" y="620" width="110" height="50" as="geometry" />
        </mxCell>
        <mxCell id="WFGGNNW9XL3jztE4nboa-21" style="edgeStyle=orthogonalEdgeStyle;rounded=0;orthogonalLoop=1;jettySize=auto;html=1;entryX=0.5;entryY=0;entryDx=0;entryDy=0;" edge="1" parent="1" source="WFGGNNW9XL3jztE4nboa-24" target="WFGGNNW9XL3jztE4nboa-25">
          <mxGeometry relative="1" as="geometry">
            <Array as="points">
              <mxPoint x="585" y="470" />
              <mxPoint x="445" y="470" />
            </Array>
          </mxGeometry>
        </mxCell>
        <mxCell id="WFGGNNW9XL3jztE4nboa-22" style="edgeStyle=orthogonalEdgeStyle;rounded=0;orthogonalLoop=1;jettySize=auto;html=1;entryX=0.5;entryY=0;entryDx=0;entryDy=0;" edge="1" parent="1" source="WFGGNNW9XL3jztE4nboa-24" target="WFGGNNW9XL3jztE4nboa-26">
          <mxGeometry relative="1" as="geometry" />
        </mxCell>
        <mxCell id="WFGGNNW9XL3jztE4nboa-23" style="edgeStyle=orthogonalEdgeStyle;rounded=0;orthogonalLoop=1;jettySize=auto;html=1;entryX=0.5;entryY=0;entryDx=0;entryDy=0;" edge="1" parent="1" source="WFGGNNW9XL3jztE4nboa-24" target="WFGGNNW9XL3jztE4nboa-27">
          <mxGeometry relative="1" as="geometry">
            <Array as="points">
              <mxPoint x="585" y="470" />
              <mxPoint x="725" y="470" />
            </Array>
          </mxGeometry>
        </mxCell>
        <mxCell id="WFGGNNW9XL3jztE4nboa-24" value="Person" style="rounded=0;whiteSpace=wrap;html=1;fontStyle=1;fontSize=15;fillColor=#dae8fc;strokeColor=#6c8ebf;" vertex="1" parent="1">
          <mxGeometry x="530" y="400" width="110" height="50" as="geometry" />
        </mxCell>
        <mxCell id="WFGGNNW9XL3jztE4nboa-25" value="Player" style="rounded=0;whiteSpace=wrap;html=1;fontStyle=1;fontSize=15;fillColor=#fff2cc;strokeColor=#d6b656;" vertex="1" parent="1">
          <mxGeometry x="390" y="510" width="110" height="50" as="geometry" />
        </mxCell>
        <mxCell id="WFGGNNW9XL3jztE4nboa-26" value="Student" style="rounded=0;whiteSpace=wrap;html=1;fontStyle=1;fontSize=15;fillColor=#fff2cc;strokeColor=#d6b656;" vertex="1" parent="1">
          <mxGeometry x="530" y="510" width="110" height="50" as="geometry" />
        </mxCell>
        <mxCell id="WFGGNNW9XL3jztE4nboa-27" value="Employee" style="rounded=0;whiteSpace=wrap;html=1;fontStyle=1;fontSize=15;fillColor=#fff2cc;strokeColor=#d6b656;" vertex="1" parent="1">
          <mxGeometry x="670" y="510" width="110" height="50" as="geometry" />
        </mxCell>
        <mxCell id="Q4DnKLJn9ZUwxzvEdAjr-1" value="Single" style="text;html=1;strokeColor=none;fillColor=none;align=center;verticalAlign=middle;whiteSpace=wrap;rounded=0;fontStyle=1;fontSize=19;" vertex="1" parent="1">
          <mxGeometry x="55" y="340" width="80" height="30" as="geometry" />
        </mxCell>
        <mxCell id="Q4DnKLJn9ZUwxzvEdAjr-2" value="Multi-level" style="text;html=1;strokeColor=none;fillColor=none;align=center;verticalAlign=middle;whiteSpace=wrap;rounded=0;fontStyle=1;fontSize=19;" vertex="1" parent="1">
          <mxGeometry x="202.5" y="340" width="125" height="30" as="geometry" />
        </mxCell>
        <mxCell id="Q4DnKLJn9ZUwxzvEdAjr-3" value="Hierarchical" style="text;html=1;strokeColor=none;fillColor=none;align=center;verticalAlign=middle;whiteSpace=wrap;rounded=0;fontStyle=1;fontSize=19;" vertex="1" parent="1">
          <mxGeometry x="545" y="340" width="80" height="30" as="geometry" />
        </mxCell>
        <mxCell id="Q4DnKLJn9ZUwxzvEdAjr-4" value="Hybrid" style="text;html=1;strokeColor=none;fillColor=none;align=center;verticalAlign=middle;whiteSpace=wrap;rounded=0;fontStyle=1;fontSize=19;" vertex="1" parent="1">
          <mxGeometry x="982" y="340" width="80" height="30" as="geometry" />
        </mxCell>
      </root>
    </mxGraphModel>
  </diagram>
  <diagram id="1yZkoSHkA2dX9LjYM9hL" name="Page-7">
    <mxGraphModel dx="1242" dy="828" grid="1" gridSize="10" guides="1" tooltips="1" connect="1" arrows="1" fold="1" page="1" pageScale="1" pageWidth="827" pageHeight="1169" math="0" shadow="0">
      <root>
        <mxCell id="0" />
        <mxCell id="1" parent="0" />
        <mxCell id="-ju_9aZkmntuFRJu7aZv-1" value="" style="rounded=0;whiteSpace=wrap;html=1;" vertex="1" parent="1">
          <mxGeometry x="80" y="120" width="110" height="40" as="geometry" />
        </mxCell>
        <mxCell id="-ju_9aZkmntuFRJu7aZv-2" value="" style="rounded=0;whiteSpace=wrap;html=1;" vertex="1" parent="1">
          <mxGeometry x="210" y="120" width="70" height="40" as="geometry" />
        </mxCell>
        <mxCell id="-ju_9aZkmntuFRJu7aZv-3" value="" style="rounded=0;whiteSpace=wrap;html=1;" vertex="1" parent="1">
          <mxGeometry x="300" y="120" width="70" height="40" as="geometry" />
        </mxCell>
        <mxCell id="-ju_9aZkmntuFRJu7aZv-4" value="Title" style="text;html=1;strokeColor=none;fillColor=none;align=left;verticalAlign=middle;whiteSpace=wrap;rounded=0;fontStyle=1;fontSize=16;" vertex="1" parent="1">
          <mxGeometry x="80" y="90" width="110" height="30" as="geometry" />
        </mxCell>
        <mxCell id="-ju_9aZkmntuFRJu7aZv-5" value="MRP" style="text;html=1;strokeColor=none;fillColor=none;align=left;verticalAlign=middle;whiteSpace=wrap;rounded=0;fontStyle=1;fontSize=16;" vertex="1" parent="1">
          <mxGeometry x="210" y="90" width="70" height="30" as="geometry" />
        </mxCell>
        <mxCell id="-ju_9aZkmntuFRJu7aZv-7" value="Qty" style="text;html=1;strokeColor=none;fillColor=none;align=left;verticalAlign=middle;whiteSpace=wrap;rounded=0;fontStyle=1;fontSize=16;" vertex="1" parent="1">
          <mxGeometry x="300" y="90" width="70" height="30" as="geometry" />
        </mxCell>
        <mxCell id="-ju_9aZkmntuFRJu7aZv-8" value="Add" style="rounded=0;whiteSpace=wrap;html=1;fillColor=#d5e8d4;strokeColor=#82b366;align=center;fontStyle=1;fontSize=14;" vertex="1" parent="1">
          <mxGeometry x="80" y="190" width="90" height="40" as="geometry" />
        </mxCell>
        <mxCell id="-ju_9aZkmntuFRJu7aZv-9" value="Cancel" style="rounded=0;whiteSpace=wrap;html=1;fillColor=#f8cecc;strokeColor=#b85450;align=center;fontStyle=1;fontSize=14;" vertex="1" parent="1">
          <mxGeometry x="190" y="190" width="90" height="40" as="geometry" />
        </mxCell>
        <mxCell id="-ju_9aZkmntuFRJu7aZv-10" value="" style="rounded=0;whiteSpace=wrap;html=1;" vertex="1" parent="1">
          <mxGeometry x="80" y="280" width="410" height="200" as="geometry" />
        </mxCell>
        <mxCell id="-ju_9aZkmntuFRJu7aZv-11" value="" style="rounded=0;whiteSpace=wrap;html=1;" vertex="1" parent="1">
          <mxGeometry x="80" y="280" width="150" height="40" as="geometry" />
        </mxCell>
        <mxCell id="-ju_9aZkmntuFRJu7aZv-12" value="" style="rounded=0;whiteSpace=wrap;html=1;" vertex="1" parent="1">
          <mxGeometry x="230" y="280" width="150" height="40" as="geometry" />
        </mxCell>
        <mxCell id="-ju_9aZkmntuFRJu7aZv-13" value="" style="rounded=0;whiteSpace=wrap;html=1;" vertex="1" parent="1">
          <mxGeometry x="380" y="280" width="109" height="40" as="geometry" />
        </mxCell>
        <mxCell id="-ju_9aZkmntuFRJu7aZv-14" value="" style="rounded=0;whiteSpace=wrap;html=1;" vertex="1" parent="1">
          <mxGeometry x="80" y="320" width="150" height="40" as="geometry" />
        </mxCell>
        <mxCell id="-ju_9aZkmntuFRJu7aZv-15" value="" style="rounded=0;whiteSpace=wrap;html=1;" vertex="1" parent="1">
          <mxGeometry x="230" y="320" width="150" height="40" as="geometry" />
        </mxCell>
        <mxCell id="-ju_9aZkmntuFRJu7aZv-16" value="" style="rounded=0;whiteSpace=wrap;html=1;" vertex="1" parent="1">
          <mxGeometry x="380" y="320" width="109" height="40" as="geometry" />
        </mxCell>
        <mxCell id="-ju_9aZkmntuFRJu7aZv-17" value="" style="rounded=0;whiteSpace=wrap;html=1;" vertex="1" parent="1">
          <mxGeometry x="230" y="360" width="150" height="40" as="geometry" />
        </mxCell>
        <mxCell id="-ju_9aZkmntuFRJu7aZv-18" value="" style="rounded=0;whiteSpace=wrap;html=1;" vertex="1" parent="1">
          <mxGeometry x="80" y="360" width="150" height="40" as="geometry" />
        </mxCell>
        <mxCell id="-ju_9aZkmntuFRJu7aZv-19" value="" style="rounded=0;whiteSpace=wrap;html=1;" vertex="1" parent="1">
          <mxGeometry x="380" y="360" width="109" height="40" as="geometry" />
        </mxCell>
        <mxCell id="-ju_9aZkmntuFRJu7aZv-22" value="" style="rounded=0;whiteSpace=wrap;html=1;" vertex="1" parent="1">
          <mxGeometry x="230" y="400" width="150" height="40" as="geometry" />
        </mxCell>
        <mxCell id="-ju_9aZkmntuFRJu7aZv-23" value="" style="rounded=0;whiteSpace=wrap;html=1;" vertex="1" parent="1">
          <mxGeometry x="80" y="400" width="150" height="40" as="geometry" />
        </mxCell>
        <mxCell id="-ju_9aZkmntuFRJu7aZv-24" value="" style="rounded=0;whiteSpace=wrap;html=1;" vertex="1" parent="1">
          <mxGeometry x="379" y="400" width="109" height="40" as="geometry" />
        </mxCell>
        <mxCell id="-ju_9aZkmntuFRJu7aZv-25" value="Title" style="text;html=1;strokeColor=none;fillColor=none;align=center;verticalAlign=middle;whiteSpace=wrap;rounded=0;fontStyle=1;fontSize=16;" vertex="1" parent="1">
          <mxGeometry x="90" y="285" width="110" height="30" as="geometry" />
        </mxCell>
        <mxCell id="-ju_9aZkmntuFRJu7aZv-26" value="Qty" style="text;html=1;strokeColor=none;fillColor=none;align=center;verticalAlign=middle;whiteSpace=wrap;rounded=0;fontStyle=1;fontSize=16;" vertex="1" parent="1">
          <mxGeometry x="250" y="285" width="110" height="30" as="geometry" />
        </mxCell>
        <mxCell id="-ju_9aZkmntuFRJu7aZv-27" value="MRP" style="text;html=1;strokeColor=none;fillColor=none;align=center;verticalAlign=middle;whiteSpace=wrap;rounded=0;fontStyle=1;fontSize=16;" vertex="1" parent="1">
          <mxGeometry x="378" y="285" width="110" height="30" as="geometry" />
        </mxCell>
        <mxCell id="-ju_9aZkmntuFRJu7aZv-29" value="Total" style="text;html=1;strokeColor=none;fillColor=none;align=right;verticalAlign=middle;whiteSpace=wrap;rounded=0;fontStyle=1;fontSize=16;" vertex="1" parent="1">
          <mxGeometry x="360" y="445" width="110" height="30" as="geometry" />
        </mxCell>
        <mxCell id="-ju_9aZkmntuFRJu7aZv-30" value="" style="rounded=0;whiteSpace=wrap;html=1;" vertex="1" parent="1">
          <mxGeometry x="490" y="280" width="109" height="40" as="geometry" />
        </mxCell>
        <mxCell id="-ju_9aZkmntuFRJu7aZv-31" value="" style="rounded=0;whiteSpace=wrap;html=1;" vertex="1" parent="1">
          <mxGeometry x="490" y="320" width="109" height="40" as="geometry" />
        </mxCell>
        <mxCell id="-ju_9aZkmntuFRJu7aZv-32" value="" style="rounded=0;whiteSpace=wrap;html=1;" vertex="1" parent="1">
          <mxGeometry x="490" y="360" width="109" height="40" as="geometry" />
        </mxCell>
        <mxCell id="-ju_9aZkmntuFRJu7aZv-33" value="" style="rounded=0;whiteSpace=wrap;html=1;" vertex="1" parent="1">
          <mxGeometry x="489" y="400" width="109" height="40" as="geometry" />
        </mxCell>
        <mxCell id="-ju_9aZkmntuFRJu7aZv-34" value="Total" style="text;html=1;strokeColor=none;fillColor=none;align=center;verticalAlign=middle;whiteSpace=wrap;rounded=0;fontStyle=1;fontSize=16;" vertex="1" parent="1">
          <mxGeometry x="488" y="285" width="110" height="30" as="geometry" />
        </mxCell>
        <mxCell id="-ju_9aZkmntuFRJu7aZv-35" value="" style="rounded=0;whiteSpace=wrap;html=1;" vertex="1" parent="1">
          <mxGeometry x="488" y="440" width="109" height="40" as="geometry" />
        </mxCell>
      </root>
    </mxGraphModel>
  </diagram>
  <diagram id="-A7vC_4o_1ZycHwrjIBu" name="Page-8">
    <mxGraphModel dx="591" dy="394" grid="1" gridSize="10" guides="1" tooltips="1" connect="1" arrows="1" fold="1" page="1" pageScale="1" pageWidth="827" pageHeight="1169" math="0" shadow="0">
      <root>
        <mxCell id="0" />
        <mxCell id="1" parent="0" />
        <mxCell id="-kD74x38Yg4J8LONPN4j-4" style="edgeStyle=orthogonalEdgeStyle;rounded=0;orthogonalLoop=1;jettySize=auto;html=1;" edge="1" parent="1" source="-kD74x38Yg4J8LONPN4j-1" target="-kD74x38Yg4J8LONPN4j-2">
          <mxGeometry relative="1" as="geometry" />
        </mxCell>
        <mxCell id="-kD74x38Yg4J8LONPN4j-1" value="Stack" style="rounded=0;whiteSpace=wrap;html=1;fontStyle=1;fontSize=16;" vertex="1" parent="1">
          <mxGeometry x="80" y="80" width="90" height="40" as="geometry" />
        </mxCell>
        <mxCell id="-kD74x38Yg4J8LONPN4j-2" value="MERN" style="rounded=0;whiteSpace=wrap;html=1;fontStyle=1;fontSize=16;" vertex="1" parent="1">
          <mxGeometry x="200" y="80" width="90" height="40" as="geometry" />
        </mxCell>
        <mxCell id="-kD74x38Yg4J8LONPN4j-5" value="Hardware" style="rounded=0;whiteSpace=wrap;html=1;fontStyle=1;fontSize=17;fillColor=#ffe6cc;strokeColor=#d79b00;" vertex="1" parent="1">
          <mxGeometry x="240" y="600" width="320" height="40" as="geometry" />
        </mxCell>
        <mxCell id="-kD74x38Yg4J8LONPN4j-6" value="Operating System" style="rounded=0;whiteSpace=wrap;html=1;fontStyle=1;fontSize=17;fillColor=#ffe6cc;strokeColor=#d79b00;" vertex="1" parent="1">
          <mxGeometry x="240" y="550" width="320" height="40" as="geometry" />
        </mxCell>
        <mxCell id="-kD74x38Yg4J8LONPN4j-7" value="Node JS" style="rounded=0;whiteSpace=wrap;html=1;fontStyle=1;fontSize=17;fillColor=#d5e8d4;strokeColor=#82b366;" vertex="1" parent="1">
          <mxGeometry x="240" y="500" width="320" height="40" as="geometry" />
        </mxCell>
        <mxCell id="-kD74x38Yg4J8LONPN4j-14" style="edgeStyle=orthogonalEdgeStyle;rounded=0;orthogonalLoop=1;jettySize=auto;html=1;entryX=0.5;entryY=1;entryDx=0;entryDy=0;" edge="1" parent="1" source="-kD74x38Yg4J8LONPN4j-8" target="-kD74x38Yg4J8LONPN4j-13">
          <mxGeometry relative="1" as="geometry" />
        </mxCell>
        <mxCell id="-kD74x38Yg4J8LONPN4j-8" value="Express&lt;br style=&quot;font-size: 13px;&quot;&gt;(web server)&lt;br style=&quot;border-color: var(--border-color); font-size: 13px;&quot;&gt;REST + GraphQL" style="rounded=0;whiteSpace=wrap;html=1;fontStyle=1;fontSize=13;fillColor=#dae8fc;strokeColor=#6c8ebf;" vertex="1" parent="1">
          <mxGeometry x="420" y="390" width="140" height="90" as="geometry" />
        </mxCell>
        <mxCell id="-kD74x38Yg4J8LONPN4j-21" style="edgeStyle=orthogonalEdgeStyle;rounded=0;orthogonalLoop=1;jettySize=auto;html=1;entryX=0;entryY=0.5;entryDx=0;entryDy=0;entryPerimeter=0;" edge="1" parent="1" source="-kD74x38Yg4J8LONPN4j-9" target="-kD74x38Yg4J8LONPN4j-16">
          <mxGeometry relative="1" as="geometry" />
        </mxCell>
        <mxCell id="-kD74x38Yg4J8LONPN4j-9" value="React&lt;br style=&quot;font-size: 14px;&quot;&gt;(frontend)" style="rounded=0;whiteSpace=wrap;html=1;fontStyle=1;fontSize=14;fillColor=#fff2cc;strokeColor=#d6b656;" vertex="1" parent="1">
          <mxGeometry x="240" y="390" width="90" height="90" as="geometry" />
        </mxCell>
        <mxCell id="-kD74x38Yg4J8LONPN4j-10" value="DB" style="shape=cylinder3;whiteSpace=wrap;html=1;boundedLbl=1;backgroundOutline=1;size=7;fillColor=#1ba1e2;fontColor=#ffffff;strokeColor=#006EAF;" vertex="1" parent="1">
          <mxGeometry x="460" y="240" width="60" height="70" as="geometry" />
        </mxCell>
        <mxCell id="-kD74x38Yg4J8LONPN4j-15" style="edgeStyle=orthogonalEdgeStyle;rounded=0;orthogonalLoop=1;jettySize=auto;html=1;entryX=0.5;entryY=1;entryDx=0;entryDy=0;entryPerimeter=0;" edge="1" parent="1" source="-kD74x38Yg4J8LONPN4j-13" target="-kD74x38Yg4J8LONPN4j-10">
          <mxGeometry relative="1" as="geometry" />
        </mxCell>
        <mxCell id="-kD74x38Yg4J8LONPN4j-13" value="DB Driver" style="rounded=0;whiteSpace=wrap;html=1;fillColor=#f5f5f5;fontColor=#333333;strokeColor=#666666;" vertex="1" parent="1">
          <mxGeometry x="445" y="330" width="90" height="30" as="geometry" />
        </mxCell>
        <mxCell id="-kD74x38Yg4J8LONPN4j-20" style="edgeStyle=orthogonalEdgeStyle;rounded=0;orthogonalLoop=1;jettySize=auto;html=1;entryX=0;entryY=0.5;entryDx=0;entryDy=0;" edge="1" parent="1" source="-kD74x38Yg4J8LONPN4j-16" target="-kD74x38Yg4J8LONPN4j-8">
          <mxGeometry relative="1" as="geometry" />
        </mxCell>
        <mxCell id="-kD74x38Yg4J8LONPN4j-16" value="cloud" style="ellipse;shape=cloud;whiteSpace=wrap;html=1;fillColor=#0050ef;fontColor=#ffffff;strokeColor=#001DBC;" vertex="1" parent="1">
          <mxGeometry x="350" y="410" width="50" height="50" as="geometry" />
        </mxCell>
        <mxCell id="-kD74x38Yg4J8LONPN4j-22" value="1" style="ellipse;whiteSpace=wrap;html=1;aspect=fixed;fillColor=#d80073;fontColor=#ffffff;strokeColor=#A50040;" vertex="1" parent="1">
          <mxGeometry x="275" y="380" width="20" height="20" as="geometry" />
        </mxCell>
        <mxCell id="-kD74x38Yg4J8LONPN4j-23" value="2" style="ellipse;whiteSpace=wrap;html=1;aspect=fixed;fillColor=#d80073;fontColor=#ffffff;strokeColor=#A50040;" vertex="1" parent="1">
          <mxGeometry x="480" y="380" width="20" height="20" as="geometry" />
        </mxCell>
        <mxCell id="-kD74x38Yg4J8LONPN4j-24" value="3" style="ellipse;whiteSpace=wrap;html=1;aspect=fixed;fillColor=#d80073;fontColor=#ffffff;strokeColor=#A50040;" vertex="1" parent="1">
          <mxGeometry x="480" y="230" width="20" height="20" as="geometry" />
        </mxCell>
      </root>
    </mxGraphModel>
  </diagram>
  <diagram id="uiU332r9qSyuOmQdxDKc" name="Page-9">
    <mxGraphModel dx="1242" dy="828" grid="1" gridSize="10" guides="1" tooltips="1" connect="1" arrows="1" fold="1" page="1" pageScale="1" pageWidth="827" pageHeight="1169" math="0" shadow="0">
      <root>
        <mxCell id="0" />
        <mxCell id="1" parent="0" />
      </root>
    </mxGraphModel>
  </diagram>
</mxfile>
